<svg xmlns="http://www.w3.org/2000/svg" width="15" height="15" viewBox="0 0 15 15">
  <path id="_3_jungle" data-name="3 jungle" d="M2.716,10.736A7.946,7.946,0,0,0,0,4.161S4.3,6.01,5.206,8.887c0,0,1.019-4.11-2.32-8.887,0,0,8.035,8.373,4.809,15A17.078,17.078,0,0,0,2.716,10.736Zm6.161-1.9A11.807,11.807,0,0,0,7.745,5.908,27.442,27.442,0,0,1,11.819,0S9.329,4.315,9.556,7.5A5.3,5.3,0,0,0,8.877,8.836Zm.8,3.493S9.908,6.113,15,3.75c0,0-3.225,2.877-2.659,6.421C12.341,10.171,10.077,11.507,9.681,12.329Z" fill="#9b80fa" fill-rule="evenodd"/>
</svg>
