<svg xmlns="http://www.w3.org/2000/svg" width="24" height="24" viewBox="0 0 24 24">
  <path id="dashboard" d="M2.4,2.4V6.2H8.2V2.4ZM2.4,0H8.2a2.4,2.4,0,0,1,2.4,2.4V6.2A2.4,2.4,0,0,1,8.2,8.6H2.4A2.4,2.4,0,0,1,0,6.2V2.4A2.4,2.4,0,0,1,2.4,0ZM15.8,0h5.8A2.4,2.4,0,0,1,24,2.4v7.8a2.4,2.4,0,0,1-2.4,2.4H15.8a2.4,2.4,0,0,1-2.4-2.4V2.4A2.4,2.4,0,0,1,15.8,0Zm0,2.4v7.8h5.8V2.4Zm0,13h5.8A2.4,2.4,0,0,1,24,17.8v3.8A2.4,2.4,0,0,1,21.6,24H15.8a2.4,2.4,0,0,1-2.4-2.4V17.8A2.4,2.4,0,0,1,15.8,15.4Zm0,2.4v3.8h5.8V17.8ZM2.4,11.4H8.2a2.4,2.4,0,0,1,2.4,2.4v7.8A2.4,2.4,0,0,1,8.2,24H2.4A2.4,2.4,0,0,1,0,21.6V13.8a2.4,2.4,0,0,1,2.4-2.4Zm0,2.4v7.8H8.2V13.8Z"/>
</svg>
