<svg xmlns="http://www.w3.org/2000/svg" width="19.999" height="17.657" viewBox="0 0 19.999 17.657">
    <defs>
        <style>
            .cls-1{fill:#deac3a}
        </style>
    </defs>
    <path id="shuffle" d="M19.548 4.837L16.875 7.51A1 1 0 1 1 15.46 6.1l1.1-1.1H15.1a5.22 5.22 0 0 0-5.089 4.058A5.264 5.264 0 0 0 15.1 13h1.5l-1.14-1.147a1 1 0 1 1 1.415-1.414l2.825 2.828a1.028 1.028 0 0 1-.155 1.57l-2.67 2.673a1 1 0 0 1-1.415-1.41l1.1-1.1H15.1a7.264 7.264 0 0 1-6.11-3.341A7.22 7.22 0 0 1 2.9 15H1a1 1 0 0 1 0-2h1.9a5.22 5.22 0 0 0 5.06-3.936A5.263 5.263 0 0 0 2.836 5H1a1 1 0 0 1 0-2h1.836a7.264 7.264 0 0 1 6.143 3.387A7.22 7.22 0 0 1 15.1 3h1.508L15.46 1.853A1 1 0 1 1 16.875.439L19.7 3.267a1.028 1.028 0 0 1-.155 1.57z" class="cls-1" transform="translate(0 -.146)"/>
</svg>
