<svg xmlns="http://www.w3.org/2000/svg" width="24" height="24" viewBox="0 0 24 24">
  <path id="user" d="M4.8,0H19.2A4.8,4.8,0,0,1,24,4.8V19.2A4.8,4.8,0,0,1,19.2,24H4.8A4.8,4.8,0,0,1,0,19.2V4.8A4.8,4.8,0,0,1,4.8,0Zm0,2.4A2.4,2.4,0,0,0,2.4,4.8V19.2a2.4,2.4,0,0,0,2.4,2.4H19.2a2.4,2.4,0,0,0,2.4-2.4V4.8a2.4,2.4,0,0,0-2.4-2.4ZM6.275,21.6H4.8a2.4,2.4,0,0,1-.976-.206,6.7,6.7,0,0,1,4.016-4.51,1.2,1.2,0,1,1,.88,2.232A4.3,4.3,0,0,0,6.275,21.6Zm11.414,0a4.39,4.39,0,0,0-2.516-2.479,1.2,1.2,0,1,1,.854-2.242A6.791,6.791,0,0,1,20.152,21.4a2.392,2.392,0,0,1-.952.2H17.688ZM12,4.8a4.8,4.8,0,0,1,4.8,4.8V12a4.8,4.8,0,0,1-9.6,0V9.6A4.8,4.8,0,0,1,12,4.8Zm0,2.4A2.4,2.4,0,0,0,9.6,9.6V12a2.4,2.4,0,1,0,4.8,0V9.6A2.4,2.4,0,0,0,12,7.2Z"/>
</svg>
