<svg xmlns="http://www.w3.org/2000/svg" width="24" height="24" viewBox="0 0 24 24">
  <path id="videos" d="M4.8,0H19.2A4.8,4.8,0,0,1,24,4.8V19.2A4.8,4.8,0,0,1,19.2,24H4.8A4.8,4.8,0,0,1,0,19.2V4.8A4.8,4.8,0,0,1,4.8,0Zm0,2.4A2.4,2.4,0,0,0,2.4,4.8V19.2a2.4,2.4,0,0,0,2.4,2.4H19.2a2.4,2.4,0,0,0,2.4-2.4V4.8a2.4,2.4,0,0,0-2.4-2.4ZM15.951,14.1l-4.866,3.478A2.279,2.279,0,0,1,7.8,16.882a2.641,2.641,0,0,1-.4-1.4V8.522A2.449,2.449,0,0,1,9.766,6a2.269,2.269,0,0,1,1.319.427L15.951,9.9a2.628,2.628,0,0,1,.648,3.5,2.45,2.45,0,0,1-.648.69ZM9.766,8.522v6.955L14.632,12Z"/>
</svg>
