<svg xmlns="http://www.w3.org/2000/svg" width="23.999" height="25" viewBox="0 0 23.999 25">
  <path id="details" d="M251.5,213a1.5,1.5,0,0,1,0-3h21a1.5,1.5,0,0,1,0,3Zm.9-5a2.453,2.453,0,0,1-2.4-2.5v-4.245A1.226,1.226,0,0,1,251.2,200h21.6a1.226,1.226,0,0,1,1.2,1.252V205.5a2.453,2.453,0,0,1-2.4,2.5Zm0-2.5h19.2V202.5H252.4Zm-1.2-7.5a1.221,1.221,0,0,1-1.2-1.243v-6.27A2.444,2.444,0,0,1,252.4,188h19.2a2.444,2.444,0,0,1,2.4,2.487v6.27A1.221,1.221,0,0,1,272.8,198Zm1.2-2.487h19.2v-5.027H252.4Z" transform="translate(-250 -188)"/>
</svg>
