<svg xmlns="http://www.w3.org/2000/svg" width="16" height="16" viewBox="0 0 16 16">
    <defs>
        <style>
            .cls-1{fill:#2c93ff}
        </style>
    </defs>
    <path id="refresh" d="M14.123 3.563l.333-1.17a.784.784 0 0 1 .989-.564.862.862 0 0 1 .526 1.061l-.927 3.25a.784.784 0 0 1-.988.564l-3.03-.994a.826.826 0 0 1-.556-.621.889.889 0 0 1 .235-.823.753.753 0 0 1 .784-.181l1.324.434A5.715 5.715 0 0 0 7.367 1.73a5.908 5.908 0 0 0-4.843 3.864l-.206.538a.806.806 0 0 1-.627.54.768.768 0 0 1-.744-.327.9.9 0 0 1-.094-.857l.206-.538A7.51 7.51 0 0 1 7.2.041a7.261 7.261 0 0 1 6.921 3.522zM1.829 12.579l-.259 1.114a.828.828 0 0 1-.549.628.755.755 0 0 1-.779-.208.892.892 0 0 1-.209-.831L.8 9.986a.845.845 0 0 1 .379-.536.745.745 0 0 1 .621-.073l3.032.81a.856.856 0 0 1 .577 1.03.79.79 0 0 1-.96.619l-1.415-.378a5.706 5.706 0 0 0 5.682 2.785A5.976 5.976 0 0 0 13.5 9.936a.783.783 0 0 1 1-.551.863.863 0 0 1 .514 1.068 7.781 7.781 0 0 1-4.261 4.954 7.151 7.151 0 0 1-8.922-2.827z" class="cls-1" transform="translate(-.005 -.003)"/>
</svg>
