<svg xmlns="http://www.w3.org/2000/svg" width="20" height="20" viewBox="0 0 20 20">
  <path id="settings" d="M20,8.163a2.108,2.108,0,0,0,0,3.674l-.717,2.406A2.105,2.105,0,0,0,17.065,17.3L15,18.9a2.1,2.1,0,0,0-3.37,1.1l-3.29-.008A2.1,2.1,0,0,0,4.981,18.9l-2.06-1.615A2.1,2.1,0,0,0,.715,14.24L0,11.825A2.106,2.106,0,0,0,1.051,10,2.1,2.1,0,0,0,0,8.175L.715,5.76A2.105,2.105,0,0,0,2.922,2.717L4.98,1.1a2.1,2.1,0,0,0,1.979.369A2.1,2.1,0,0,0,8.342.008L11.634,0a2.1,2.1,0,0,0,1.385,1.471A2.1,2.1,0,0,0,15,1.1l2.06,1.6a2.105,2.105,0,0,0,2.218,3.058L20,8.162ZM14.823,3.68c0-.063,0-.125.005-.188l-.08-.062A4.1,4.1,0,0,1,10.44,2l-.9,0a4.1,4.1,0,0,1-4.29,1.43l-.095.076A4.108,4.108,0,0,1,2.279,7.6,4.1,4.1,0,0,1,3.051,10a4.106,4.106,0,0,1-.772,2.4,4.108,4.108,0,0,1,2.872,4.09l.1.075a4.1,4.1,0,0,1,4.289,1.43l.9,0a4.1,4.1,0,0,1,4.307-1.428l.08-.062A4.108,4.108,0,0,1,17.7,12.4a4.112,4.112,0,0,1,0-4.8,4.108,4.108,0,0,1-2.876-3.919ZM10,14a4,4,0,1,1,4-4A4,4,0,0,1,10,14Zm0-2a2,2,0,1,0-2-2A2,2,0,0,0,10,12Z"/>
</svg>
