<svg xmlns="http://www.w3.org/2000/svg" width="463.663" height="1080" viewBox="0 0 463.663 1080">
    <defs>
        <style>
            .cls-1{fill:url(#linear-gradient)}.cls-2{fill:url(#linear-gradient-2)}.cls-3{fill:url(#linear-gradient-3)}
        </style>
        <linearGradient id="linear-gradient" x1=".5" x2=".5" y2="1" gradientUnits="objectBoundingBox">
            <stop offset="0" stop-color="#2d3960"/>
            <stop offset="1" stop-color="#192139"/>
        </linearGradient>
        <linearGradient id="linear-gradient-2" x2="0" y2="1" gradientUnits="objectBoundingBox">
            <stop offset="0" stop-color="#7166d5"/>
            <stop offset="1" stop-color="#54549b"/>
        </linearGradient>
        <linearGradient id="linear-gradient-3" x2="0" y2="1" gradientUnits="objectBoundingBox">
            <stop offset="0" stop-color="#9b80fa"/>
            <stop offset="1" stop-color="#7166d5"/>
        </linearGradient>
    </defs>
    <g id="sidebar">
        <path id="sidebar-overlay-darker" d="M179 1080V0h432.633a493.86 493.86 0 0 1 19.125 64.616 497.88 497.88 0 0 1 8.381 49.151 503.922 503.922 0 0 1 1.712 102.2 497.473 497.473 0 0 1-6.857 50.075 493.9 493.9 0 0 1-28.059 94.825 496.586 496.586 0 0 1-45.48 85.961 500.1 500.1 0 0 1-60.855 74.979l.122.115.3.283a531.423 531.423 0 0 0-139.37 182.114A525.956 525.956 0 0 0 314.1 875.094a537.12 537.12 0 0 0-2.439 61.329c.29 16.6 1.36 33.341 3.18 49.747a532.783 532.783 0 0 0 7.641 48.367 526.121 526.121 0 0 0 11.5 45.463z" class="cls-1" transform="translate(-179)"/>
        <path id="sidebar-overlay-dark" d="M180 1080V0h290.876A464.079 464.079 0 0 1 499 66.185a467.468 467.468 0 0 1 12.651 45.081 473.166 473.166 0 0 1 11.631 95.278 467.308 467.308 0 0 1-1.489 47.438 463.811 463.811 0 0 1-16.9 91.312 466.345 466.345 0 0 1-34.036 84.744 469.63 469.63 0 0 1-49.472 76l.126.1.306.234a499.045 499.045 0 0 0-112.281 183.753 493.866 493.866 0 0 0-26.714 164.059 504.345 504.345 0 0 0 3.742 57.514c1.9 15.476 4.542 31 7.852 46.148a498.805 498.805 0 0 0 11.884 44.42A494.96 494.96 0 0 0 338.534 1080z" class="cls-2" transform="translate(-180)"/>
        <path id="sidebar-overlay" d="M180 1080V953.779a544.978 544.978 0 0 0 3.571 38.727 539.49 539.49 0 0 0 8.6 48.9q4.359 19.451 10.187 38.6zM180 0h291.681a500.4 500.4 0 0 1 15.841 52.708 504.877 504.877 0 0 1 9.365 49.678 511.442 511.442 0 0 1 4.392 51.339 511.06 511.06 0 0 1-.849 52.235 504.2 504.2 0 0 1-6.065 50.884 500.745 500.745 0 0 1-26.765 96.623 503.485 503.485 0 0 1-44.582 87.945 507.078 507.078 0 0 1-60.365 77.088l.127.115.307.281a538.783 538.783 0 0 0-138.061 187.079 533.227 533.227 0 0 0-44.171 173.943q-.5 6.251-.855 12.544z" class="cls-3" transform="translate(-180)"/>
    </g>
</svg>
